<svg xmlns="http://www.w3.org/2000/svg" viewBox="0 0 300 300" fill="none">
<rect width="300" height="300" rx="60" fill="#0F203A"/>
<g transform="translate(18,30) scale(0.85)" fill-rule="evenodd">
<g fill="#0F203A">
<path d="M 19.00 35.00 L 19.00 36.00 L 23.00 40.00 L 23.00 41.00 L 31.00 49.00 L 31.00 50.00 L 37.00 56.00 L 37.00 57.00 L 45.00 65.00 L 45.00 66.00 L 52.00 73.00 L 52.00 74.00 L 59.00 81.00 L 59.00 82.00 L 68.00 91.00 L 68.00 92.00 L 76.00 100.00 L 76.00 101.00 L 83.00 108.00 L 83.00 109.00 L 91.00 117.00 L 91.00 118.00 L 99.00 126.00 L 100.00 126.00 L 104.00 130.00 L 105.00 130.00 L 107.00 132.00 L 108.00 132.00 L 109.00 133.00 L 112.00 134.00 L 114.00 136.00 L 115.00 136.00 L 116.00 137.00 L 116.00 139.00 L 114.00 141.00 L 113.00 141.00 L 108.00 145.00 L 105.00 146.00 L 103.00 148.00 L 102.00 148.00 L 101.00 149.00 L 100.00 149.00 L 99.00 150.00 L 96.00 151.00 L 90.00 157.00 L 90.00 158.00 L 81.00 167.00 L 81.00 168.00 L 70.00 179.00 L 70.00 180.00 L 60.00 190.00 L 120.00 190.00 L 121.00 191.00 L 121.00 192.00 L 115.00 198.00 L 115.00 199.00 L 111.00 203.00 L 110.00 203.00 L 110.00 204.00 L 91.00 223.00 L 91.00 224.00 L 82.00 233.00 L 92.00 233.00 L 105.00 220.00 L 105.00 219.00 L 106.00 218.00 L 107.00 218.00 L 108.00 217.00 L 108.00 216.00 L 109.00 215.00 L 110.00 215.00 L 120.00 205.00 L 120.00 204.00 L 144.00 180.00 L 144.00 179.00 L 159.00 164.00 L 159.00 163.00 L 161.00 161.00 L 162.00 161.00 L 162.00 160.00 L 175.00 147.00 L 175.00 146.00 L 183.00 138.00 L 183.00 137.00 L 181.00 135.00 L 181.00 134.00 L 180.00 134.00 L 179.00 133.00 L 179.00 132.00 L 171.00 124.00 L 171.00 123.00 L 164.00 116.00 L 164.00 115.00 L 156.00 107.00 L 156.00 106.00 L 146.00 96.00 L 146.00 95.00 L 137.00 86.00 L 137.00 85.00 L 129.00 77.00 L 129.00 76.00 L 120.00 67.00 L 120.00 66.00 L 112.00 58.00 L 112.00 57.00 L 101.00 46.00 L 101.00 45.00 L 94.00 38.00 L 94.00 37.00 L 93.00 36.00 L 91.00 36.00 L 90.00 35.00 Z"/>
</g>
<g fill="#229C62">
<path d="M 155.00 187.00 L 155.00 188.00 L 161.00 194.00 L 161.00 195.00 L 162.00 195.00 L 163.00 196.00 L 163.00 197.00 L 166.00 200.00 L 167.00 200.00 L 168.00 201.00 L 168.00 202.00 L 212.00 246.00 L 213.00 246.00 L 214.00 247.00 L 286.00 247.00 L 283.00 244.00 L 283.00 243.00 L 278.00 238.00 L 278.00 237.00 L 271.00 230.00 L 271.00 229.00 L 264.00 222.00 L 264.00 221.00 L 258.00 215.00 L 258.00 214.00 L 252.00 208.00 L 252.00 207.00 L 246.00 201.00 L 246.00 200.00 L 239.00 193.00 L 239.00 192.00 L 233.00 186.00 L 233.00 185.00 L 225.00 177.00 L 225.00 176.00 L 217.00 168.00 L 217.00 167.00 L 211.00 161.00 L 211.00 160.00 L 201.00 150.00 L 201.00 149.00 L 195.00 143.00 L 194.00 144.00 L 194.00 145.00 L 185.00 154.00 L 185.00 155.00 L 171.00 169.00 L 171.00 170.00 L 160.00 181.00 L 160.00 182.00 Z"/>
<path d="M 245.00 42.00 L 245.00 47.00 L 251.00 47.00 L 251.00 42.00 Z"/>
<path d="M 260.00 41.00 L 260.00 54.00 L 273.00 54.00 L 273.00 41.00 Z"/>
<path d="M 241.00 23.00 L 227.00 23.00 L 227.00 35.00 L 226.00 36.00 L 203.00 36.00 L 201.00 38.00 L 198.00 39.00 L 190.00 47.00 L 190.00 48.00 L 178.00 60.00 L 178.00 61.00 L 165.00 74.00 L 165.00 75.00 L 164.00 76.00 L 163.00 76.00 L 163.00 77.00 L 155.00 85.00 L 155.00 87.00 L 160.00 92.00 L 160.00 93.00 L 167.00 100.00 L 167.00 101.00 L 175.00 109.00 L 175.00 110.00 L 187.00 122.00 L 187.00 123.00 L 195.00 131.00 L 195.00 130.00 L 206.00 119.00 L 206.00 118.00 L 208.00 116.00 L 209.00 116.00 L 209.00 115.00 L 216.00 108.00 L 216.00 107.00 L 228.00 95.00 L 228.00 94.00 L 237.00 85.00 L 237.00 84.00 L 250.00 71.00 L 250.00 70.00 L 255.00 65.00 L 255.00 62.00 L 254.00 61.00 L 250.00 61.00 L 249.00 62.00 L 242.00 62.00 L 241.00 61.00 L 234.00 61.00 L 233.00 60.00 L 233.00 53.00 L 231.00 51.00 L 227.00 51.00 L 226.00 50.00 L 226.00 40.00 L 227.00 39.00 L 241.00 39.00 Z"/>
<path d="M 214.00 53.00 L 215.00 52.00 L 223.00 52.00 L 225.00 54.00 L 225.00 62.00 L 224.00 63.00 L 215.00 63.00 L 214.00 62.00 Z"/>
<path d="M 267.00 8.00 L 267.00 22.00 L 279.00 22.00 L 280.00 21.00 L 280.00 8.00 Z"/>
</g>
<g fill="#7AD62A">
<path d="M 94.00 202.00 L 93.00 201.00 L 50.00 201.00 L 42.00 209.00 L 42.00 210.00 L 29.00 223.00 L 29.00 224.00 L 19.00 234.00 L 19.00 235.00 L 63.00 235.00 L 79.00 219.00 L 79.00 218.00 L 84.00 213.00 L 85.00 213.00 L 85.00 212.00 L 93.00 204.00 L 93.00 203.00 Z"/>
<path d="M 255.00 28.00 L 255.00 31.00 L 256.00 32.00 L 256.00 33.00 L 259.00 33.00 L 260.00 32.00 L 261.00 32.00 L 261.00 28.00 L 260.00 27.00 L 256.00 27.00 Z"/>
</g>
</g>
</svg>